<svg xmlns="http://www.w3.org/2000/svg" viewBox="0 0 320 220" role="img" aria-labelledby="title desc">
  <title id="title">Child in hockey gear</title>
  <desc id="desc">A gentle illustration of a child with hockey gear for the niño flashcard.</desc>
  <rect width="320" height="220" rx="24" fill="#f7efe2"/>
  <circle cx="160" cy="80" r="34" fill="#f6cda8"/>
  <path d="M112 184c8-44 25-69 48-69s40 25 48 69" fill="#2f7d59"/>
  <path d="M118 139h84v28h-84z" fill="#ffffff" opacity=".92"/>
  <path d="M105 59c11-27 43-39 74-27 20 8 32 25 35 47-28-15-72-15-109-20z" fill="#17212b"/>
  <path d="M101 63c19 14 91 14 118 2" fill="none" stroke="#66a9c9" stroke-width="10" stroke-linecap="round"/>
  <circle cx="148" cy="83" r="4" fill="#17212b"/>
  <circle cx="174" cy="83" r="4" fill="#17212b"/>
  <path d="M149 101c9 7 19 7 28 0" fill="none" stroke="#17212b" stroke-width="4" stroke-linecap="round"/>
  <path d="M92 148l-43 29M224 148l43 29" fill="none" stroke="#17212b" stroke-width="9" stroke-linecap="round"/>
  <path d="M52 179l55 16" fill="none" stroke="#e75845" stroke-width="6" stroke-linecap="round"/>
  <path d="M268 179l-55 16" fill="none" stroke="#e75845" stroke-width="6" stroke-linecap="round"/>
  <text x="160" y="158" text-anchor="middle" font-family="Arial, sans-serif" font-size="26" font-weight="800" fill="#17212b">13</text>
</svg>
